<?xml version="1.0" encoding="UTF-8" standalone="no"?>
<!DOCTYPE svg PUBLIC "-//W3C//DTD SVG 1.1//EN"
 "http://www.w3.org/Graphics/SVG/1.1/DTD/svg11.dtd">
<!-- Generated by graphviz version 6.0.2 (20221011.1828)
 -->
<!-- Pages: 1 -->
<svg width="586pt" height="100pt"
 viewBox="0.00 0.00 586.00 100.00" xmlns="http://www.w3.org/2000/svg" xmlns:xlink="http://www.w3.org/1999/xlink">
<g id="graph0" class="graph" transform="scale(1 1) rotate(0) translate(4 96)">
<polygon fill="white" stroke="none" points="-4,4 -4,-96 582,-96 582,4 -4,4"/>
<!-- 2716487806024 -->
<g id="node1" class="node">
<title>2716487806024</title>
<polygon fill="none" stroke="black" points="0,-55.5 0,-91.5 164,-91.5 164,-55.5 0,-55.5"/>
<text text-anchor="middle" x="40.5" y="-69.8" font-family="Times New Roman,serif" font-size="14.00">data 5.0000</text>
<polyline fill="none" stroke="black" points="81,-55.5 81,-91.5"/>
<text text-anchor="middle" x="122.5" y="-69.8" font-family="Times New Roman,serif" font-size="14.00">grad 0.0000</text>
</g>
<!-- 2716487805128 -->
<g id="node3" class="node">
<title>2716487805128</title>
<polygon fill="none" stroke="black" points="203.5,-55.5 203.5,-91.5 367.5,-91.5 367.5,-55.5 203.5,-55.5"/>
<text text-anchor="middle" x="244" y="-69.8" font-family="Times New Roman,serif" font-size="14.00">data 7.0000</text>
<polyline fill="none" stroke="black" points="284.5,-55.5 284.5,-91.5"/>
<text text-anchor="middle" x="326" y="-69.8" font-family="Times New Roman,serif" font-size="14.00">grad 0.0000</text>
</g>
<!-- 2716487806024&#45;&gt;2716487805128 -->
<g id="edge5" class="edge">
<title>2716487806024&#45;&gt;2716487805128</title>
<path fill="none" stroke="black" d="M164.09,-73.5C173.66,-73.5 183.49,-73.5 193.19,-73.5"/>
<polygon fill="black" stroke="black" points="193.25,-77 203.25,-73.5 193.25,-70 193.25,-77"/>
</g>
<!-- 2716487805896 -->
<g id="node5" class="node">
<title>2716487805896</title>
<polygon fill="none" stroke="black" points="200,-0.5 200,-36.5 371,-36.5 371,-0.5 200,-0.5"/>
<text text-anchor="middle" x="244" y="-14.8" font-family="Times New Roman,serif" font-size="14.00">data 10.0000</text>
<polyline fill="none" stroke="black" points="288,-0.5 288,-36.5"/>
<text text-anchor="middle" x="329.5" y="-14.8" font-family="Times New Roman,serif" font-size="14.00">grad 0.0000</text>
</g>
<!-- 2716487806024&#45;&gt;2716487805896 -->
<g id="edge2" class="edge">
<title>2716487806024&#45;&gt;2716487805896</title>
<path fill="none" stroke="black" d="M148.98,-55.49C168.03,-50.29 188.97,-44.58 208.57,-39.23"/>
<polygon fill="black" stroke="black" points="209.65,-42.56 218.37,-36.55 207.8,-35.81 209.65,-42.56"/>
</g>
<!-- 2716487805000 -->
<g id="node2" class="node">
<title>2716487805000</title>
<polygon fill="none" stroke="black" points="407,-27.5 407,-63.5 578,-63.5 578,-27.5 407,-27.5"/>
<text text-anchor="middle" x="451" y="-41.8" font-family="Times New Roman,serif" font-size="14.00">data 70.0000</text>
<polyline fill="none" stroke="black" points="495,-27.5 495,-63.5"/>
<text text-anchor="middle" x="536.5" y="-41.8" font-family="Times New Roman,serif" font-size="14.00">grad 0.0000</text>
</g>
<!-- 2716487805128&#45;&gt;2716487805000 -->
<g id="edge4" class="edge">
<title>2716487805128&#45;&gt;2716487805000</title>
<path fill="none" stroke="black" d="M367.52,-62.43C377.07,-61.13 386.89,-59.79 396.61,-58.46"/>
<polygon fill="black" stroke="black" points="397.26,-61.91 406.69,-57.08 396.31,-54.97 397.26,-61.91"/>
</g>
<!-- 2716487804168 -->
<g id="node4" class="node">
<title>2716487804168</title>
<polygon fill="none" stroke="black" points="0,-0.5 0,-36.5 164,-36.5 164,-0.5 0,-0.5"/>
<text text-anchor="middle" x="40.5" y="-14.8" font-family="Times New Roman,serif" font-size="14.00">data 2.0000</text>
<polyline fill="none" stroke="black" points="81,-0.5 81,-36.5"/>
<text text-anchor="middle" x="122.5" y="-14.8" font-family="Times New Roman,serif" font-size="14.00">grad 0.0000</text>
</g>
<!-- 2716487804168&#45;&gt;2716487805128 -->
<g id="edge6" class="edge">
<title>2716487804168&#45;&gt;2716487805128</title>
<path fill="none" stroke="black" d="M148.98,-36.51C168.03,-41.71 188.97,-47.42 208.57,-52.77"/>
<polygon fill="black" stroke="black" points="207.8,-56.19 218.37,-55.45 209.65,-49.44 207.8,-56.19"/>
</g>
<!-- 2716487804168&#45;&gt;2716487805896 -->
<g id="edge3" class="edge">
<title>2716487804168&#45;&gt;2716487805896</title>
<path fill="none" stroke="black" d="M164.09,-18.5C172.58,-18.5 181.26,-18.5 189.88,-18.5"/>
<polygon fill="black" stroke="black" points="189.96,-22 199.96,-18.5 189.96,-15 189.96,-22"/>
</g>
<!-- 2716487805896&#45;&gt;2716487805000 -->
<g id="edge1" class="edge">
<title>2716487805896&#45;&gt;2716487805000</title>
<path fill="none" stroke="black" d="M371.06,-29.64C379.55,-30.75 388.2,-31.89 396.78,-33.02"/>
<polygon fill="black" stroke="black" points="396.43,-36.51 406.8,-34.34 397.34,-29.57 396.43,-36.51"/>
</g>
</g>
</svg>
